<svg width="5" height="9" viewBox="0 0 5 9" fill="none" xmlns="http://www.w3.org/2000/svg">
<path d="M0.245493 7.97143C-0.0693603 7.66345 -0.0940685 7.23469 0.245493 6.8582L2.89068 4.09773L0.245492 1.33727C-0.0940688 0.96078 -0.0693606 0.531311 0.245492 0.225456C0.559639 -0.0825176 1.09051 -0.0627394 1.3856 0.225456C1.68069 0.512239 4.56378 3.54183 4.56378 3.54183C4.63851 3.61397 4.69794 3.70044 4.73853 3.79607C4.77913 3.8917 4.80005 3.99454 4.80005 4.09844C4.80005 4.20234 4.77913 4.30518 4.73853 4.40081C4.69794 4.49644 4.63851 4.58291 4.56378 4.65505C4.56378 4.65505 1.68069 7.68323 1.3856 7.97143C1.09051 8.26033 0.55964 8.2794 0.245493 7.97143Z" fill="#323C47"/>
</svg>
