<svg width="9" height="6" viewBox="0 0 9 6" fill="none" xmlns="http://www.w3.org/2000/svg">
<path d="M0.527597 0.940805C0.835571 0.625952 1.26433 0.601244 1.64082 0.940805L4.40129 3.58599L7.16175 0.940805C7.53824 0.601244 7.96771 0.625952 8.27357 0.940805C8.58154 1.25495 8.56176 1.78583 8.27357 2.08091C7.98678 2.376 4.9572 5.25909 4.9572 5.25909C4.88505 5.33382 4.79858 5.39325 4.70295 5.43385C4.60732 5.47444 4.50448 5.49536 4.40058 5.49536C4.29668 5.49536 4.19385 5.47444 4.09821 5.43385C4.00258 5.39325 3.91611 5.33382 3.84397 5.25909C3.84397 5.25909 0.815793 2.376 0.527597 2.08091C0.238694 1.78583 0.219623 1.25495 0.527597 0.940805Z" fill="#323C47"/>
</svg>
