<svg width="19" height="18" viewBox="0 0 19 18" fill="none" xmlns="http://www.w3.org/2000/svg">
<path d="M18.7859 15.4692C19.3948 16.594 18.6305 18 17.4145 18H1.58488C0.366472 18 -0.394254 16.5918 0.213416 15.4692L8.1283 0.843223C8.73746 -0.282094 10.2632 -0.280055 10.8712 0.843223L18.7859 15.4692ZM9.49977 12.4453C8.66175 12.4453 7.98241 13.1694 7.98241 14.0625C7.98241 14.9556 8.66175 15.6797 9.49977 15.6797C10.3378 15.6797 11.0171 14.9556 11.0171 14.0625C11.0171 13.1694 10.3378 12.4453 9.49977 12.4453ZM8.05916 6.63237L8.30385 11.4136C8.3153 11.6374 8.48887 11.8125 8.69909 11.8125H10.3004C10.5107 11.8125 10.6842 11.6374 10.6957 11.4136L10.9404 6.63237C10.9527 6.3907 10.7722 6.1875 10.5451 6.1875H8.45437C8.22729 6.1875 8.04679 6.3907 8.05916 6.63237Z" fill="#E79955"/>
</svg>
