<svg width="19" height="19" viewBox="0 0 19 19" fill="none" xmlns="http://www.w3.org/2000/svg">
<path d="M9.5 0C4.25379 0 0 4.25379 0 9.5C0 14.7462 4.25379 19 9.5 19C14.7462 19 19 14.7462 19 9.5C19 4.25379 14.7462 0 9.5 0ZM13.6032 6.39766L9.13739 12.5896C9.07497 12.6767 8.99269 12.7477 8.89736 12.7967C8.80203 12.8457 8.6964 12.8712 8.58923 12.8712C8.48206 12.8712 8.37643 12.8457 8.2811 12.7967C8.18577 12.7477 8.10349 12.6767 8.04107 12.5896L5.39676 8.92533C5.31618 8.81295 5.39676 8.65603 5.5346 8.65603H6.52913C6.74542 8.65603 6.95112 8.75993 7.07835 8.93806L8.58817 11.0331L11.9217 6.41038C12.0489 6.23437 12.2525 6.12835 12.4709 6.12835H13.4654C13.6032 6.12835 13.6838 6.28527 13.6032 6.39766Z" fill="#80C483"/>
</svg>
